<?xml version="1.0" standalone="no"?>
<!DOCTYPE svg PUBLIC "-//W3C//DTD SVG 20010904//EN"
 "http://www.w3.org/TR/2001/REC-SVG-20010904/DTD/svg10.dtd">
<svg version="1.0" xmlns="http://www.w3.org/2000/svg"
 width="243.000000pt" height="243.000000pt" viewBox="0 0 243.000000 243.000000"
 preserveAspectRatio="xMidYMid meet">
<metadata>
Created by potrace 1.11, written by Peter Selinger 2001-2013
</metadata>
<g transform="translate(0.000000,243.000000) scale(0.100000,-0.100000)"
fill="#000000" stroke="none">
<path d="M360 2400 l-314 -5 -2 -70 c-1 -38 -5 -200 -8 -360 -4 -159 -9 -342
-11 -405 -2 -63 -7 -236 -10 -385 -3 -148 -8 -329 -10 -402 l-4 -132 67 -65
c37 -35 77 -73 89 -83 12 -11 75 -69 139 -129 64 -60 129 -120 143 -133 14
-13 51 -47 81 -75 30 -28 71 -65 91 -82 l35 -30 869 3 c478 2 870 5 871 6 4 4
27 1310 28 1609 l1 157 -80 77 c-44 42 -152 146 -240 232 -88 85 -188 183
-223 216 l-63 61 -567 0 c-312 0 -709 -2 -882 -5z m1582 -166 c79 -78 206
-203 283 -278 l140 -136 -177 1 -177 1 -26 56 c-14 31 -38 70 -53 86 -27 29
-159 96 -189 96 -16 0 -31 7 -243 108 -297 141 -342 162 -349 162 -23 0 -32
-29 -21 -70 12 -43 71 -371 74 -404 2 -30 -37 -34 -302 -34 l-236 0 -91 87
c-49 47 -135 129 -190 182 -55 53 -142 136 -194 185 l-93 89 563 5 c310 3 693
5 851 5 l287 -1 143 -140z m-1609 -137 c20 -19 37 -37 37 -40 0 -3 -17 3 -37
13 -87 41 -244 110 -253 110 -7 0 -8 92 -1 154 1 4 49 -39 109 -97 59 -58 124
-120 145 -140z m992 108 c77 -37 174 -83 215 -103 70 -33 73 -36 50 -45 -91
-36 -157 -72 -215 -116 -37 -28 -80 -58 -95 -66 l-29 -15 -10 37 c-5 21 -12
56 -16 78 -14 79 -16 91 -31 175 -9 47 -18 95 -20 108 -3 13 -1 22 3 19 4 -2
71 -35 148 -72z m-1053 -152 c191 -86 198 -90 287 -172 64 -60 91 -92 91 -108
0 -13 -2 -23 -4 -23 -5 0 -96 41 -221 100 -140 65 -276 126 -317 141 l-38 13
0 68 c0 37 1 68 3 68 2 0 92 -39 199 -87z m1532 -58 c70 -31 113 -69 136 -121
11 -23 20 -45 20 -48 0 -2 -153 -4 -340 -4 l-341 1 53 35 c29 19 55 38 58 41
11 14 77 59 110 76 105 55 210 62 304 20z m-1646 -69 c43 -19 109 -49 147 -67
39 -18 131 -60 205 -94 l135 -62 1 -77 c0 -42 0 -76 -1 -76 -1 0 -21 10 -46
21 -118 58 -311 149 -314 149 -1 0 -45 20 -96 43 -52 24 -101 47 -110 50 -13
4 -15 18 -13 69 3 80 3 78 10 78 3 0 40 -15 82 -34z m1237 -135 l40 -1 -40
-23 c-22 -13 -77 -51 -123 -84 -77 -55 -141 -86 -200 -98 -54 -10 -181 -26
-251 -31 -42 -3 -91 -7 -108 -8 l-33 -3 0 83 0 84 33 1 c99 3 382 49 437 72
16 7 125 13 175 10 17 -1 48 -2 70 -2z m572 -6 c8 -2 11 -40 10 -124 -1 -65
-4 -121 -7 -124 -16 -13 -100 -67 -104 -67 -3 0 -6 7 -6 16 0 9 -10 50 -22 92
-20 70 -28 83 -89 144 -36 37 -62 69 -58 70 13 4 262 -2 276 -7z m-978 1 c-5
-5 -166 -26 -246 -33 -59 -5 -63 -3 -63 16 0 20 4 21 157 21 86 0 154 -2 152
-4z m1336 -5 c-10 -8 -281 -193 -300 -203 -6 -4 -10 33 -10 103 l0 109 160 0
c92 0 155 -4 150 -9z m-715 -16 c47 -8 59 -16 117 -78 40 -42 56 -69 72 -122
32 -102 29 -127 -19 -159 l-40 -26 -6 27 c-27 106 -89 171 -188 198 -76 21
-120 11 -193 -39 -196 -138 -242 -160 -357 -172 -33 -4 -63 -8 -66 -10 -4 -1
-51 -5 -105 -9 -55 -3 -110 -8 -122 -11 -25 -5 -24 -8 -26 86 l-1 55 50 1 c59
2 189 13 224 19 14 2 43 7 65 10 132 18 186 43 348 161 64 47 179 90 208 77 3
-1 21 -5 39 -8z m-1458 -29 c40 -19 111 -52 158 -74 47 -22 135 -63 195 -91
61 -28 117 -55 125 -60 10 -6 15 -27 15 -74 0 -37 -1 -67 -3 -67 -5 0 -145 63
-272 122 -52 25 -143 67 -202 93 l-108 48 0 69 c0 37 4 68 9 68 5 0 42 -15 83
-34z m2238 -3 c-1 -19 -20 -34 -73 -58 -80 -35 -81 -32 -7 19 66 45 80 52 80
39z m-8 -153 c-3 -21 -20 -34 -90 -70 -127 -64 -337 -185 -412 -238 -36 -25
-141 -107 -234 -181 -215 -174 -296 -232 -320 -228 -24 3 -52 42 -59 82 -5 28
-1 34 48 68 34 24 62 36 77 33 13 -2 34 1 47 5 23 9 131 77 141 90 14 17 373
301 426 337 63 42 106 63 274 137 l95 42 5 -26 c3 -14 4 -37 2 -51z m-2207
-43 c55 -25 148 -68 208 -96 59 -28 140 -65 180 -82 39 -17 74 -33 77 -36 5
-4 2 -114 -3 -120 -2 -2 -46 17 -98 41 -233 109 -312 144 -465 206 -18 7 -21
15 -18 67 3 76 3 75 12 70 4 -3 52 -25 107 -50z m1365 27 c29 -9 65 -25 80
-36 31 -23 65 -86 74 -140 6 -34 4 -39 -31 -62 l-38 -26 -21 48 c-28 64 -65
92 -119 92 -69 0 -135 -28 -220 -91 -82 -60 -162 -105 -205 -115 -27 -5 -58
-11 -105 -19 -17 -3 -87 -8 -156 -11 l-125 -6 0 61 c0 34 3 62 6 62 3 1 21 3
40 4 130 9 208 16 230 20 14 2 43 7 65 10 51 7 142 33 175 50 14 7 68 44 120
81 79 57 142 91 171 94 3 0 29 -7 59 -16z m833 -205 c-4 -4 -116 -69 -248
-144 -256 -147 -384 -228 -480 -307 -33 -27 -67 -55 -75 -61 -8 -7 -62 -51
-120 -98 -123 -100 -208 -159 -231 -159 -17 0 -49 31 -53 52 -5 25 -17 103
-20 128 -2 14 -7 46 -11 71 l-7 45 49 32 48 32 8 -40 c10 -47 56 -90 96 -90
34 0 135 71 341 238 84 68 193 152 243 186 82 56 138 89 397 229 l65 36 3 -71
c2 -39 -1 -74 -5 -79z m-2237 22 c68 -28 144 -62 254 -114 173 -80 233 -107
241 -107 5 0 9 -28 9 -61 0 -54 -2 -61 -17 -56 -10 3 -131 57 -269 121 -139
63 -264 118 -278 122 -24 6 -26 10 -26 58 0 44 5 66 15 66 1 0 33 -13 71 -29z
m1404 -3 c11 -12 25 -40 31 -62 10 -39 10 -41 -23 -68 -39 -32 -68 -44 -77
-30 -3 5 -20 16 -36 25 -39 19 -63 10 -165 -67 -70 -52 -190 -123 -190 -112 0
2 -17 0 -37 -6 -55 -15 -187 -28 -323 -32 l-45 -1 -1 56 c-1 31 1 61 5 66 3 6
62 13 131 17 257 14 307 29 457 137 101 73 155 98 210 99 31 0 48 -6 63 -22z
m838 -136 l-1 -68 -236 -145 c-254 -155 -485 -307 -560 -367 -25 -20 -82 -67
-126 -103 -94 -77 -192 -145 -241 -165 -19 -8 -59 -17 -88 -19 -67 -6 -66 -8
-71 145 -2 61 -6 119 -9 128 -3 9 -8 51 -11 93 -5 74 -5 77 20 93 14 9 29 14
34 12 5 -3 12 -32 16 -63 18 -156 27 -185 62 -213 56 -44 109 -17 339 172 263
216 364 283 729 489 117 66 140 79 142 79 1 0 2 -31 1 -68z m-2199 -44 c64
-28 187 -84 274 -125 87 -40 165 -73 173 -73 11 0 14 -16 14 -70 l0 -70 -38
16 c-20 8 -118 49 -217 90 -170 71 -184 79 -255 144 -41 39 -77 70 -80 70 -7
0 0 70 7 70 3 0 57 -23 122 -52z m1255 -1 c17 -12 -1 -27 -188 -156 -114 -78
-221 -148 -239 -156 -30 -12 -100 -19 -272 -27 l-60 -3 -3 63 c-2 34 1 62 5
63 4 1 40 2 78 4 276 12 365 35 498 129 150 105 151 105 181 83z m940 -140
c-1 -23 -3 -49 -3 -58 -1 -9 -61 -56 -143 -109 -79 -52 -249 -164 -378 -250
-321 -212 -566 -367 -683 -430 -91 -48 -102 -52 -152 -48 -70 6 -121 43 -131
94 -6 34 0 130 12 184 5 24 6 193 1 254 -2 24 6 34 46 63 28 20 48 28 48 21 1
-7 3 -22 4 -33 8 -66 17 -191 20 -257 4 -112 11 -134 46 -148 36 -15 117 -6
176 20 59 26 115 66 288 203 173 138 247 188 590 401 143 88 253 150 256 144
4 -5 5 -29 3 -51z m-2307 26 c11 -10 62 -56 113 -103 51 -47 101 -92 110 -100
9 -8 59 -54 111 -101 52 -48 112 -103 134 -123 l40 -36 -67 30 c-78 34 -188
84 -232 105 -17 8 -76 34 -131 59 l-100 44 -1 121 c0 66 0 121 1 121 1 0 11
-8 22 -17z m421 -204 l152 -63 -2 -83 -2 -83 -25 22 c-14 13 -30 28 -36 33 -7
6 -56 51 -111 101 -54 50 -112 104 -129 119 -37 33 -37 33 153 -46z m1882 -33
l0 -85 -207 -128 c-115 -71 -229 -142 -255 -159 -27 -16 -146 -89 -265 -163
-120 -74 -248 -156 -284 -183 l-66 -47 -270 -4 c-149 -1 -275 -1 -280 0 -10 4
-9 12 2 158 15 181 14 241 -5 281 -9 22 -24 45 -34 53 -15 12 -9 19 61 67 42
30 81 50 85 46 9 -9 12 -217 4 -231 -3 -5 -9 -51 -12 -103 -5 -72 -3 -101 9
-130 28 -68 134 -114 219 -96 55 11 197 93 493 282 120 76 704 463 750 496 22
16 43 29 48 30 4 0 7 -38 7 -84z m-1450 -26 c-1 -3 -56 -42 -123 -88 l-122
-82 -3 76 c-2 42 0 79 3 82 3 3 44 7 93 10 48 2 88 4 89 5 4 5 63 2 63 -3z
m-591 -135 c152 -69 283 -129 291 -134 12 -7 15 -36 15 -167 0 -87 -2 -187 -5
-221 l-5 -62 -55 51 c-30 28 -89 83 -130 122 -123 116 -312 291 -361 335 -47
41 -47 42 -44 99 2 31 4 67 4 80 1 12 4 22 7 22 3 0 130 -56 283 -125z m2039
-42 l-4 -67 -177 -121 c-97 -66 -261 -178 -364 -248 l-188 -128 -138 3 -138 3
253 157 c450 281 753 468 756 468 2 0 2 -30 0 -67z m-1660 -157 c9 -31 8 -60
-6 -290 -6 -97 -10 -120 -23 -121 -13 -2 -15 20 -13 189 4 304 2 280 19 266 8
-7 19 -26 23 -44z m1656 -23 c-1 -32 -3 -74 -3 -94 -1 -35 -5 -38 -103 -100
-57 -35 -147 -92 -201 -126 l-97 -63 -126 0 -126 0 149 101 c81 55 227 154
323 220 96 65 178 119 181 119 3 0 4 -26 3 -57z m-6 -280 l-3 -98 -160 -2
c-109 -1 -155 1 -145 8 74 49 297 187 303 188 4 1 6 -43 5 -96z"/>
</g>
</svg>
